<?xml version="1.0" encoding="UTF-8"?>
<!DOCTYPE svg PUBLIC "-//W3C//DTD SVG 1.1//EN" "http://www.w3.org/Graphics/SVG/1.1/DTD/svg11.dtd">
<svg xmlns="http://www.w3.org/2000/svg" version="1.1" width="200px" height="200px" style="shape-rendering:geometricPrecision; text-rendering:geometricPrecision; image-rendering:optimizeQuality; fill-rule:evenodd; clip-rule:evenodd" xmlns:xlink="http://www.w3.org/1999/xlink">
<g><path style="opacity:0.937" fill="#fefffe" d="M 86.5,23.5 C 106.833,23.5 127.167,23.5 147.5,23.5C 147.667,59.5015 147.5,95.5015 147,131.5C 142.258,160.234 125.258,174.567 96,174.5C 61.7997,173.457 44.6331,155.79 44.5,121.5C 51.8333,121.5 59.1667,121.5 66.5,121.5C 67.6106,147.439 80.9439,157.939 106.5,153C 117.314,148.894 123.48,141.06 125,129.5C 125.5,101.169 125.667,72.8353 125.5,44.5C 112.5,44.5 99.5,44.5 86.5,44.5C 86.5,37.5 86.5,30.5 86.5,23.5 Z"/></g>
<g><path style="opacity:0.914" fill="#fefffe" d="M 49.5,67.5 C 65.9309,65.7643 73.0975,73.0976 71,89.5C 65.3073,98.6195 57.474,101.12 47.5,97C 36.4155,86.4122 37.0821,76.5788 49.5,67.5 Z"/></g>
<g><path style="opacity:0.913" fill="#fefffe" d="M 92.5,67.5 C 109.31,65.8046 116.144,73.1379 113,89.5C 107.489,99.0029 99.6559,101.503 89.5,97C 82.6249,91.166 80.7915,83.9994 84,75.5C 86.0738,71.9231 88.9072,69.2565 92.5,67.5 Z"/></g>
</svg>
